<?xml version="1.0" encoding="utf-8"?>
<!-- Generator: Adobe Illustrator 19.0.0, SVG Export Plug-In . SVG Version: 6.00 Build 0)  -->
<svg version="1.1" id="Layer_1" xmlns="http://www.w3.org/2000/svg" xmlns:xlink="http://www.w3.org/1999/xlink" x="0px" y="0px"
	 viewBox="0 0 960 560" style="enable-background:new 0 0 960 560;" xml:space="preserve">
<style type="text/css">
	.st0{fill:#15E0FF;stroke:#000000;stroke-miterlimit:10;}
</style>
<polygon id="A71" class="st0" points="45.9,318.2 45.9,318.2 45.9,388.1 4.1,388.1 6,318.2 "/>
<polygon id="A70" class="st0" points="87.7,318.2 87.7,388.1 45.9,388.1 45.9,318.2 45.9,318.2 "/>
<polygon id="A69" class="st0" points="87.7,283.3 87.7,318.2 45.9,318.2 6,318.2 6.9,283.2 "/>
<polygon id="A68" class="st0" points="87.7,248.3 87.7,283.3 6.9,283.2 7.8,248.3 "/>
<polygon id="A67" class="st0" points="87.6,213.3 87.7,248.3 7.8,248.3 8.7,213.3 8.7,213.3 "/>
<polygon id="A66" class="st0" points="87.6,178.4 87.6,213.3 8.7,213.3 8.7,213.3 9.6,178.4 "/>
<polygon id="A65" class="st0" points="87.6,143.4 87.6,178.4 9.6,178.4 10.5,143.4 14.9,143.4 "/>
<polygon id="A64" class="st0" points="87.6,108.9 87.6,143.4 14.9,143.4 10.5,143.4 11.4,108.4 87.6,108.5 "/>
<path id="A63" class="st0" d="M87.6,108.5l-76.1,0l1.3-49.5l61.8,0c-0.9,3.1-1.3,6.3-1.3,9.7c0,8.2,2.7,15.7,7.3,21.8v0
	C84.3,95.6,86.9,101.8,87.6,108.5z"/>
<path id="A62" class="st0" d="M209.4,59l0,49.5l-77.7,0c0.7-6.7,3.2-12.9,7.1-18c4.6-6.1,7.3-13.6,7.3-21.8c0-3.3-0.4-6.6-1.3-9.7
	L209.4,59z"/>
<path id="A61" class="st0" d="M209.4,108.5v34.9h-77.9v-31.1c0-1.3,0.1-2.6,0.2-3.8L209.4,108.5z"/>
<polygon id="A60" class="st0" points="209.4,143.4 209.4,178.4 131.5,178.4 131.5,143.4 "/>
<polygon id="A59" class="st0" points="209.4,178.4 209.4,213.4 131.4,213.4 131.5,178.4 "/>
<polygon id="A58" class="st0" points="209.4,213.4 209.4,248.3 131.4,248.3 131.4,213.4 "/>
<polygon id="A57" class="st0" points="209.4,248.3 209.4,283.3 131.4,283.3 131.4,248.3 "/>
<polygon id="A56" class="st0" points="209.4,283.3 209.4,318.2 170.4,318.2 131.4,318.2 131.4,283.3 "/>
<polygon id="A55" class="st0" points="170.4,318.2 170.4,388.1 131.4,388.1 131.4,318.2 "/>
<polygon id="A54" class="st0" points="209.4,318.2 209.3,388.2 170.4,388.1 170.4,318.2 "/>
<polygon id="A53" class="st0" points="248.3,318.2 248.3,388.2 209.3,388.2 209.4,318.2 "/>
<polygon id="A52" class="st0" points="287.3,318.2 287.3,388.2 248.3,388.2 248.3,318.2 287.3,318.2 "/>
<polygon id="A51" class="st0" points="287.3,283.3 287.3,318.2 287.3,318.2 248.3,318.2 209.4,318.2 209.4,283.3 287.3,283.3 "/>
<polygon id="A50" class="st0" points="287.3,248.3 287.3,283.3 287.3,283.3 209.4,283.3 209.4,248.3 "/>
<rect id="A49" x="209.4" y="213.4" class="st0" width="77.9" height="35"/>
<polygon id="A48" class="st0" points="287.3,178.4 287.3,213.4 209.4,213.4 209.4,178.4 287.3,178.4 "/>
<polygon id="A47" class="st0" points="287.3,143.5 287.3,178.4 287.3,178.4 209.4,178.4 209.4,143.4 "/>
<path id="A46" class="st0" d="M287.3,111.4v32.1l-77.9,0v-34.9l77.8,0C287.3,109.5,287.3,110.4,287.3,111.4z"/>
<path id="A45" class="st0" d="M287.2,108.5l-77.8,0l0-49.5h64.4c-0.7,2.8-1,5.7-1,8.7c0,8.2,2.7,15.8,7.3,21.8
	C284.1,94.9,286.7,101.4,287.2,108.5z"/>
<path id="A44" class="st0" d="M408.3,59l0,49.5l-77.1,0c0.6-7.1,3.1-13.6,7.2-19v0c4.6-6.1,7.3-13.6,7.3-21.8c0-3-0.4-5.9-1-8.7
	L408.3,59z"/>
<path id="A43" class="st0" d="M408.2,108.5v35l-77.2,0v-32.1c0-1,0-1.9,0.1-2.9L408.2,108.5z"/>
<polygon id="A42" class="st0" points="408.2,143.5 408.2,178.5 331,178.4 331,143.5 "/>
<polygon id="A41" class="st0" points="408.2,178.5 408.2,213.4 331,213.4 331,213.4 331,178.4 "/>
<polygon id="A40" class="st0" points="408.2,213.4 408.2,248.4 331,248.3 331,213.4 331,213.4 "/>
<polygon id="A39" class="st0" points="408.2,248.4 408.2,283.3 331,283.3 331,248.3 "/>
<polygon id="A38" class="st0" points="408.2,283.3 408.2,318.3 369.6,318.3 331,318.3 331,283.3 "/>
<polygon id="A37" class="st0" points="369.6,318.3 369.6,388.2 331,388.2 331,318.3 "/>
<polygon id="A36" class="st0" points="408.2,318.3 408.2,388.2 369.6,388.2 369.6,388.2 369.6,318.3 "/>
<polygon id="A35" class="st0" points="446.8,318.3 446.8,388.2 408.2,388.2 408.2,318.3 "/>
<polygon id="A34" class="st0" points="485.4,318.3 485.4,388.2 446.8,388.2 446.8,318.3 459.4,318.3 461.5,318.3 485.4,318.3 "/>
<polygon id="A33" class="st0" points="485.4,283.3 485.4,318.3 485.4,318.3 461.5,318.3 459.4,318.3 446.8,318.3 408.2,318.3 
	408.2,283.3 "/>
<polygon id="A32" class="st0" points="485.4,248.4 485.4,283.3 408.2,283.3 408.2,248.4 "/>
<polygon id="A31" class="st0" points="485.4,213.4 485.4,248.4 408.2,248.4 408.2,213.4 "/>
<polygon id="A30" class="st0" points="485.4,178.5 485.4,213.4 408.2,213.4 408.2,178.5 "/>
<rect id="A29" x="408.2" y="143.5" class="st0" width="77.2" height="35"/>
<path id="A28" class="st0" d="M485.4,110.4v33.1h-77.2v-35h77.1C485.4,109.2,485.4,109.8,485.4,110.4z"/>
<path id="A27" class="st0" d="M485.4,108.5h-77.1l0-49.5h63.4c-0.6,2.5-0.8,5.1-0.8,7.7c0,8.2,2.7,15.8,7.3,21.8l0,0
	C482.4,94.2,485,101.1,485.4,108.5z"/>
<path id="A26" class="st0" d="M607.1,59.1l0,49.5h-77.8c0.4-7.5,3-14.4,7.2-20h0c4.6-6.1,7.3-13.7,7.3-21.9c0-2.6-0.3-5.2-0.8-7.7
	L607.1,59.1z"/>
<path id="A25" class="st0" d="M607,108.6v35l-77.9,0v-33.1c0-0.6,0-1.2,0.1-1.9H607z"/>
<polygon id="A24" class="st0" points="607,143.5 607,178.5 529.1,178.5 529.1,143.5 "/>
<polygon id="A23" class="st0" points="607,178.5 607,213.4 529.1,213.4 529.1,178.5 "/>
<rect id="A22" x="529.1" y="213.4" class="st0" width="77.9" height="35"/>
<polygon id="A21" class="st0" points="607,248.4 607,283.4 529.1,283.4 529.1,248.4 "/>
<polygon id="A20" class="st0" points="607,283.4 607,318.3 568.1,318.3 529.1,318.3 529.1,283.4 "/>
<polygon id="A19" class="st0" points="529.1,318.3 568.1,318.3 568.1,388.2 568.1,388.3 529,388.2 "/>
<polygon id="A18" class="st0" points="607,318.3 607,388.3 568.1,388.3 568.1,388.2 568.1,318.3 "/>
<polygon id="A17" class="st0" points="646,318.3 646,388.3 607,388.3 607,388.3 607,318.3 "/>
<polygon id="A16" class="st0" points="685.1,318.4 685,388.3 646,388.3 646,318.3 "/>
<polygon id="A15" class="st0" points="685.1,283.4 685.1,318.4 646,318.3 607,318.3 607,283.4 "/>
<polygon id="A14" class="st0" points="685.1,248.4 685.1,283.4 607,283.4 607,248.4 "/>
<polygon id="A13" class="st0" points="685.1,213.5 685.1,248.4 607,248.4 607,213.4 "/>
<polygon id="A12" class="st0" points="685.1,178.5 685.1,213.5 607,213.4 607,178.5 "/>
<polygon id="A11" class="st0" points="685.1,143.6 685.1,178.5 607,178.5 607,143.5 "/>
<path id="A10" class="st0" d="M685.1,108.6c0,0.3,0,0.6,0,0.9v34.1l-78,0v-35L685.1,108.6z"/>
<path id="A9" class="st0" d="M685.1,108.6l-78,0l0-49.5h64.1c-0.4,2.2-0.6,4.5-0.6,6.8c0,8.2,2.7,15.8,7.3,21.8
	C682.2,93.5,684.9,100.8,685.1,108.6z"/>
<path id="A7" class="st0" d="M707,0.3l0,29.1c-17.8,0-32.6,12.8-35.8,29.7h-64.1V0.2L707,0.3z"/>
<path id="A6" class="st0" d="M607.1,0.2v58.8l-64.2,0c-3.5-16.4-18.2-28.7-35.6-28.7V0.2H607.1z"/>
<path id="A5" class="st0" d="M507.3,0.2v30.1c-17.5,0-32.1,12.3-35.6,28.7h-63.4V0.2L507.3,0.2z"/>
<path id="A4" class="st0" d="M408.3,0.2V59l-63.7,0c-3.9-15.9-18.2-27.8-35.3-27.8V0.2L408.3,0.2z"/>
<path id="A3" class="st0" d="M309.2,0.2v31.1c-17.1,0-31.5,11.8-35.4,27.7h-64.4V0.2L309.2,0.2z"/>
<path id="A2" class="st0" d="M209.4,0.2V59l-64.7,0c-4.2-15.4-18.3-26.8-35.1-26.8v-32H209.4z"/>
<path id="A1" class="st0" d="M109.6,0.2v32h0c-16.8,0-30.9,11.3-35.1,26.8l-61.8,0l1.5-58.8L109.6,0.2z"/>
<polygon id="B25" class="st0" points="301,431.9 301,501.8 257,501.7 257,431.9 "/>
<polygon id="B24" class="st0" points="257,431.9 257,466.8 257,501.8 257,544.8 222.1,545 222.1,431.9 "/>
<polygon id="B23" class="st0" points="222.1,431.9 222.1,545 187.1,545.2 187.1,431.9 "/>
<polygon id="B22" class="st0" points="187.1,431.9 187.1,545.2 152.1,545.3 152.2,431.9 152.2,431.8 "/>
<polygon id="B21" class="st0" points="152.2,431.8 152.2,431.9 152.1,545.3 117.2,545.5 117.2,431.8 "/>
<polygon id="B20" class="st0" points="82.2,501.8 82.2,431.8 117.2,431.8 117.2,545.5 82.2,545.7 "/>
<polygon id="B19" class="st0" points="82.2,431.8 82.2,501.8 41.7,501.7 41.7,431.8 41.7,431.8 "/>
<polygon id="B18" class="st0" points="41.7,431.8 41.7,431.8 41.7,501.7 1.2,501.7 3,431.8 "/>
<polygon id="B17" class="st0" points="82.2,501.8 82.2,545.7 0,546 1.2,501.7 41.7,501.7 "/>
<polygon id="B2" class="st0" points="344.9,501.8 344.9,544.5 257,544.8 257,501.8 257,501.8 "/>
<polygon id="B1" class="st0" points="344.9,431.9 344.9,501.8 300.9,501.8 300.9,501.8 300.9,431.8 "/>
<polygon id="C16" class="st0" points="648.5,432 648.5,501.7 612.2,501.7 612.2,431.9 "/>
<polygon id="C15" class="st0" points="612.2,431.9 612.2,466.9 612.2,501.9 612.2,542.9 612.2,543.2 578.3,543.4 578.3,431.9 "/>
<polygon id="C14" class="st0" points="578.3,431.9 578.3,543.4 540.8,543.6 540.8,431.9 540.8,431.9 "/>
<polygon id="C13" class="st0" points="540.8,431.9 540.8,431.9 540.8,543.6 503.8,543.7 503.8,431.9 "/>
<polygon id="C12" class="st0" points="503.8,431.9 503.7,543.7 464.6,543.9 464.6,501.8 464.6,466.9 464.6,431.9 "/>
<polygon id="C11" class="st0" points="464.6,431.9 464.6,501.8 427.2,501.8 427.2,431.9 "/>
<polygon id="C10" class="st0" points="427.5,431.9 427.5,501.7 388.6,501.7 388.6,431.9 "/>
<polygon id="C9" class="st0" points="464.6,501.8 464.6,543.9 388.6,544.2 388.6,501.8 "/>
<polygon id="C2" class="st0" points="685,501.9 685,542.9 612.2,543.2 612.2,542.9 612.2,501.9 612.2,501.9 "/>
<polygon id="C1" class="st0" points="685,432 685,501.9 648.6,501.9 648.5,501.9 648.6,431.9 "/>
<path id="D1" class="st0" d="M959.6,0.3l0.4,541.3l-231.3,1.1l0.1-433.1c0-8.2,2.7-15.8,7.3-21.9
	c4.6-6.1,7.3-13.6,7.3-21.8c0-20.1-16.3-36.4-36.4-36.4l0-29.1L959.6,0.3z"/>
</svg>
